<svg width="17" height="24" viewBox="0 0 17 24" fill="none" xmlns="http://www.w3.org/2000/svg">
<path d="M11.3156 0H5.68438C2.55 0 0 2.66667 0 5.94444V7.11111C0 7.61111 0.371875 8 0.85 8C1.32812 8 1.7 7.61111 1.7 7.11111V5.94444C1.7 3.61111 3.50625 1.77778 5.68438 1.77778H11.3156C13.4938 1.77778 15.3 3.66667 15.3 5.94444C15.3 7.44444 14.5031 8.83333 13.2812 9.55556L8.075 12.6111C7.27813 13.0556 6.8 13.9444 6.8 14.9444V16.8889C6.8 17.3889 7.17188 17.7778 7.65 17.7778C8.12813 17.7778 8.5 17.3889 8.5 16.8889V14.9444C8.5 14.6111 8.65938 14.3333 8.925 14.1667L14.1313 11.1111C15.8844 10.0556 17 8.05556 17 5.94444C17 2.66667 14.45 0 11.3156 0ZM7.65 20.4444C6.69375 20.4444 5.95 21.2222 5.95 22.2222C5.95 23.2222 6.69375 24 7.65 24C8.60625 24 9.35 23.2222 9.35 22.2222C9.35 21.2222 8.60625 20.4444 7.65 20.4444Z" fill="#C2C5CB"/>
</svg>
